<?xml version="1.0" encoding="UTF-8" standalone="no"?>
<!-- Created with Inkscape (http://www.inkscape.org/) -->
<svg
   xmlns:svg="http://www.w3.org/2000/svg"
   xmlns="http://www.w3.org/2000/svg"
   version="1.0"
   width="409.91486"
   height="552.00458"
   id="svg13935">
  <defs
     id="defs13937" />
  <g
     transform="translate(0.9533346,-2.0376787)"
     style="display:inline"
     id="layer3" />
  <g
     transform="translate(0.9533346,-2.0376787)"
     id="layer4" />
  <g
     transform="translate(0.9533346,-2.0376787)"
     id="layer2" />
  <g
     transform="translate(0.9533346,-2.0376787)"
     id="layer5" />
  <path
     d="M 231.25,166.46875 C 202.93305,169.54859 174.83103,165.10875 148.43587,154.57636 C 117.59309,147.903 81.490537,158.12508 59.25593,180.67663 C 48.60152,191.88142 68.287844,197.2697 58.164798,212.21207 C 64.449762,233.85654 37.821851,211.8224 30.407398,231.58635 C 26.612124,258.87757 44.144226,241.40823 54.867089,296.56384 C 48.142048,317.39706 48.243221,353.70728 77.775565,347.1321 C 78.358308,384.1576 115.45366,393.50951 140.00247,412.07825 C 155.30696,436.98004 94.702072,440.83595 120.84761,434.05761 C 92.72072,441.10366 59.351477,432.86908 37.6875,458.4375 C 28.352332,475.39333 -7.2125245,492.1513 11.1875,509.875 C 24.118104,544.51347 68.707415,522.43108 95.524509,534.11959 C 146.67537,542.74663 197.1031,523.58167 248.37166,526.38077 C 282.58525,522.18154 317.4415,543.08361 350.56965,529.22137 C 365.66957,528.90463 372.54368,513.03664 390.25,512.4375 C 378.86163,488.62055 364.22216,458.44214 335.69235,447.26874 C 317.84091,433.633 281.65334,433.51967 272.55901,426.43592 C 283.02907,398.29081 316.04153,379.44378 328.63202,357.38903 C 360.93632,354.18248 369.08987,314.69361 350.90625,291.90625 C 362.73491,271.04462 373.51681,245.34681 369.98376,221.33646 C 355.34171,196.93676 349.88255,160.67592 311.14957,161.01788 C 284.43088,159.66627 257.20844,161.06585 231.25,166.46875 z "
     style="fill:#dcb830;fill-opacity:1;stroke:none;stroke-width:1;stroke-miterlimit:4;stroke-dasharray:none;stroke-opacity:1;display:inline"
     id="path14401" />
  <path
     d="M 213.71875,1.28125 C 196.67425,-1.9166556 195.95851,20.31704 187.64773,24.847507 C 167.48347,25.842127 146.09826,36.610858 139.75749,57.013154 C 138.67613,67.32145 138.44168,73.550415 126.72202,75.332819 C 105.92996,82.835676 88.68057,96.93376 70.443116,109.00803 C 62.290568,118.11206 54.910299,130.67298 46.731547,141.97277 C 40.597859,158.62338 37.661819,176.70438 37.663058,194.46505 C 38.540075,205.52666 40.767967,229.26175 56.808812,222.41308 C 68.343909,212.88249 64.786557,195.87969 68.81487,182.83876 C 70.20772,169.24256 86.667128,167.74649 97.279731,165.69165 C 111.33617,166.17062 124.19658,162.00235 132.15192,155.32891 C 151.43019,158.10207 169.19993,167.83036 188.17735,169.93856 C 197.96918,172.66462 216.97951,164.67035 220.50386,167.88953 C 211.288,176.07795 245.06882,168.70984 252.58708,167.06995 C 266.02667,165.33775 270.45754,186.29299 283.17959,189.87428 C 306.09006,199.47807 330.26926,219.56093 328.28125,246.625 C 323.96459,257.54075 347.08185,260.55227 349.09416,247.02235 C 364.68829,245.14807 365.99375,228.39562 369.98917,217.92877 C 382.70237,207.489 372.04114,190.03579 369.51527,177.10528 C 364.99283,159.80908 357.43668,144.01211 348.24469,128.6924 C 344.76941,117.09885 337.20178,109.24476 326.21451,106.20116 C 315.54517,93.923986 303.58282,82.491216 290.21344,73.055253 C 275.29264,68.592001 278.74179,49.143428 266.53125,40.875 C 261.53775,25.966883 238.20016,25.798469 236.57826,12.64346 C 233.97779,4.2209162 221.77507,1.9096406 213.71875,1.28125 z "
     style="fill:#bc8000;fill-opacity:1;stroke:none;stroke-width:1;stroke-miterlimit:4;stroke-dasharray:none;stroke-opacity:1"
     id="path14434" />
  <path
     d="M 255.65625,223.34375 C 240.04439,223.31211 215.16319,233.1733 209.375,246.46875 C 204.41615,250.42707 200.33844,255.43817 197.65625,261.875 C 198.07467,262.13524 198.49541,262.35582 198.90625,262.59375 C 192.21338,272.73998 198.44494,299.36045 212.84375,300.28125 C 214.67592,300.68968 216.22856,300.96334 217.625,301.15625 C 219.693,315.70773 251.35362,325.97628 266.15625,321.59375 C 280.89132,307.79084 270.49689,303.76396 257.0625,300.15625 C 257.62345,299.58574 258.04076,299.05173 258.34375,298.53125 C 259.51958,298.38939 260.68281,298.20401 261.8125,297.9375 C 261.63183,298.77244 261.51713,299.60102 261.53125,300.46875 C 269.37212,303.3729 275.97886,296.96305 273.59375,293.15625 C 284.96823,285.91139 257.73769,283.16994 247.40625,284.90625 C 246.61767,286.12925 246.06182,287.27327 245.625,288.3125 C 238.81736,286.01146 231.11769,283.63293 226.84375,280.1875 C 227.66811,278.82667 228.29207,277.19101 228.625,275.21875 C 232.85479,275.20394 237.6378,274.02722 242.25,273.59375 C 256.64539,267.11873 251.16803,260.45785 241.5625,257.90625 C 243.08044,257.32434 244.62814,256.76046 246.25,256.25 C 257.79375,248.38575 272.31441,257.04848 282.5625,255.46875 C 283.13711,255.98405 283.71397,256.52319 284.28125,257.09375 C 287.41287,254.41288 289.66085,251.95595 291.15625,249.6875 C 309.99628,242.88278 294.74437,232.60814 280.03125,229.6875 C 280.02136,229.68554 280.00989,229.68946 280,229.6875 C 273.4007,226.99162 265.58735,225.08292 259.46875,223.5625 C 258.27398,223.40676 257.00934,223.34649 255.65625,223.34375 z "
     style="fill:#b87c00;fill-opacity:1;stroke:none;stroke-width:1;stroke-miterlimit:4;stroke-dasharray:none;stroke-opacity:1"
     id="path14342" />
  <path
     d="M 340.5625,246.21875 C 335.8613,246.74579 332.98001,251.20155 330.75659,254.92414 C 324.2666,266.33187 319.33226,279.08732 319.38983,292.38323 C 319.39852,300.54939 321.74804,308.89086 326.96875,315.28125 C 327.55985,318.69506 327.97877,322.38829 330.01128,325.28973 C 331.98444,325.28149 328.24763,329.99524 331.43928,331.37652 C 335.55602,333.96042 340.98542,332.7485 345.09593,330.7455 C 348.88539,329.01563 351.72167,324.57354 350.02717,320.42765 C 348.77815,317.68091 347.21906,315.01066 346.89921,311.93397 C 345.52263,302.1641 349.47208,292.75134 352.41113,283.64033 C 354.97396,275.91806 357.58653,267.93231 357.15625,259.6875 C 353.15046,257.47226 348.56783,254.74118 343.82696,255.9468 C 342.55045,256.92937 338.59073,257.76437 340.92185,255.27928 C 341.72464,252.73492 345.59506,250.02035 344.84373,247.86989 C 343.65788,246.86243 342.14987,246.13718 340.5625,246.21875 z "
     style="fill:#b87c00;fill-opacity:1;stroke:none;stroke-width:1;stroke-miterlimit:4;stroke-dasharray:none;stroke-opacity:1"
     id="path14346" />
  <path
     d="M 44.03125,226.25 C 39.356292,225.75273 36.223211,229.63663 34.018274,233.21289 C 30.915844,237.92992 36.078989,242.12173 40.11291,243.69773 C 47.400482,247.40477 56.59829,250.1266 60.15513,258.24295 C 60.791006,262.58979 58.216635,267.67213 61.115805,272.219 C 62.72416,277.63165 66.814515,281.54143 69.387652,286.38435 C 72.952075,294.68628 71.514512,303.89679 71.6875,312.65625 C 66.538951,311.06442 66.000045,314.9935 65.690582,318.79524 C 64.322083,324.05545 58.162032,319.17462 55.992646,324.21752 C 54.078559,329.35061 56.792187,334.62845 56.228456,339.41959 C 57.236935,344.14613 61.327552,346.92327 64.584367,350.02611 C 71.660224,355.31762 82.046669,351.49246 86.284895,344.3785 C 89.866291,338.83041 90.417322,331.35753 87.6875,325.375 C 94.511528,318.12545 93.260374,307.20709 90.096028,298.6001 C 85.768637,285.52861 77.627723,273.7075 75.875,259.84375 C 75.744218,256.29812 76.267953,250.56637 73.823518,246.6547 C 68.551294,236.13975 58.064934,227.75829 46.234567,226.31127 C 45.502001,226.25068 44.766078,226.22833 44.03125,226.25 z M 72.5625,329.65625 C 72.528932,330.4958 71.876379,329.2996 72.5625,329.65625 z "
     style="fill:#b87c00;fill-opacity:1;stroke:none;stroke-width:1;stroke-miterlimit:4;stroke-dasharray:none;stroke-opacity:1"
     id="path14350" />
  <path
     d="M 185.53125,395.34375 C 181.6104,395.41989 175.40213,399.20008 174.3125,403.25 C 160.17083,421.12247 206.22351,431.60994 217.25,414.53125 C 225.76508,390.76465 198.95715,403.94185 188.5,400.0625 C 189.45345,396.62561 187.90308,395.29769 185.53125,395.34375 z "
     style="fill:#b87c00;fill-opacity:1;stroke:none;stroke-width:1;stroke-miterlimit:4;stroke-dasharray:none;stroke-opacity:1"
     id="path14392" />
  <path
     d="M 267.625,241.5 C 260.90589,241.47754 253.6991,242.96049 246.5,245.125 C 240.43352,245.20656 233.00192,246.79481 226.125,249.21875 C 227.02724,248.4481 227.93072,247.80665 228.8125,247.40625 C 228.74692,247.2906 228.66041,247.20504 228.59375,247.09375 C 229.11767,246.8153 229.64373,246.56865 230.1875,246.375 C 229.07723,245.63016 227.95404,245.07634 226.8125,244.6875 C 219.95159,237.73908 209.26859,247.34955 201.59375,256.84375 C 199.10429,259.75284 196.9023,262.82297 195.125,265.71875 C 195.11327,265.7369 195.10542,265.76317 195.09375,265.78125 C 194.62718,266.50434 194.20576,267.17871 193.84375,267.78125 C 193.8573,267.80153 193.86145,267.8236 193.875,267.84375 C 193.44399,268.61243 193.04596,269.37571 192.6875,270.09375 C 194.25458,271.22326 195.7621,271.97551 197.1875,272.375 C 192.97764,282.76542 209.79763,300.85317 220.6875,302.5 C 222.87364,302.46982 224.59695,302.39117 225.96875,302.21875 C 235.25072,305.77057 251.19518,305.31556 257.3125,307.03125 C 260.54922,294.76222 242.09187,295.58149 229.875,291.84375 C 242.54911,292.8988 222.79702,282.43855 213.71875,273.6875 C 213.76582,273.5185 213.81488,273.35428 213.875,273.1875 C 217.67099,270.41683 221.23611,265.67375 225.34375,262.78125 C 225.35546,262.77301 225.36329,262.75821 225.375,262.75 C 233.47694,261.19367 242.06683,257.187 250.125,254.78125 C 263.54678,253.43371 277.29637,254.09466 289.21875,249.96875 C 283.37349,243.83622 275.87296,241.52757 267.625,241.5 z M 202.75,273.21875 C 202.83704,273.28667 202.91356,273.3731 203,273.4375 C 202.9289,273.6956 202.88838,273.95539 202.875,274.21875 C 202.81566,273.88368 202.77061,273.55753 202.75,273.21875 z M 204.5625,278.40625 C 204.68864,278.56524 204.83113,278.71609 204.96875,278.875 C 204.98033,278.94651 204.98775,279.02191 205,279.09375 C 204.84318,278.86476 204.7053,278.63718 204.5625,278.40625 z "
     style="fill:#9c6000;fill-opacity:1;stroke:none;stroke-width:1;stroke-miterlimit:4;stroke-dasharray:none;stroke-opacity:1"
     id="path14479" />
  <g
     transform="translate(-160,0)"
     id="g3262">
    <path
       d="M 375.25,309.40625 C 374.58926,309.40142 373.9278,309.46318 373.25,309.5625 C 368.45849,319.0817 371.59474,328.76203 377.6875,336.4375 C 376.54114,336.61948 375.09531,337.16087 373.28125,338.28125 C 353.62098,347.8603 331.26513,349.31408 311.3125,339.5 C 312.29733,338.29808 313.63684,335.80257 314.53125,333.15625 C 314.5377,333.14399 314.55607,333.13727 314.5625,333.125 C 317.27006,327.96068 318.11453,322.06976 313.1875,318.125 C 309.28132,321.27204 302.08494,321.76023 300.375,327.21875 C 294.4367,324.5424 292.31438,334.5729 293.78125,341.0625 C 294.22546,357.69883 323.78285,362.71507 339.8125,363.5625 C 339.68806,364.1105 339.74832,364.60677 339.9375,365.0625 C 334.79546,367.88553 344.00489,384.80594 351.59375,374.78125 C 351.87569,374.65112 352.15998,374.54019 352.46875,374.375 C 352.38463,374.25023 352.30287,374.12477 352.21875,374 C 352.50161,373.56815 352.75518,373.10782 353.03125,372.59375 C 352.96428,370.79997 352.75391,369.45397 352.5,368.40625 C 352.83624,368.18442 353.17826,367.94615 353.5,367.6875 C 353.37466,369.34198 353.25862,370.99645 353.125,372.65625 C 358.41769,386.18518 366.01698,377.94343 367,370.125 C 370.61179,368.19246 373.01681,364.00881 371.21875,357.4375 C 386.9968,354.13849 401.17728,348.84887 396.1875,334.78125 C 395.4004,324.6133 386.69465,309.48986 375.25,309.40625 z "
       style="fill:#b87c00;fill-opacity:1;stroke:none;stroke-width:1;stroke-miterlimit:4;stroke-dasharray:none;stroke-opacity:1"
       id="path14380" />
    <path
       d="M 366.6875,343.40625 C 357.1392,343.47404 342.27232,348.58745 336.1875,348.625 C 335.64915,356.00253 338.85077,358.69147 343.6875,359.125 C 342.94631,367.55202 349.11726,378.93168 361.09375,376 C 361.35986,378.31247 365.29381,364.87386 362.84375,355.53125 C 367.35698,354.29015 371.50104,353.30061 374.3125,353.59375 C 377.24607,345.69062 373.22055,343.35987 366.6875,343.40625 z "
       style="fill:#9c6000;fill-opacity:1;stroke:none;stroke-width:1;stroke-miterlimit:4;stroke-dasharray:none;stroke-opacity:1"
       id="path14497" />
  </g>
  <path
     d="M 193.65625,395.34375 C 189.88533,395.47347 187.5772,396.77382 186.4375,398.59375 C 186.05599,398.80652 185.67413,399.05301 185.3125,399.3125 C 185.3744,400.11264 185.4639,400.88439 185.5625,401.65625 C 185.56246,401.66681 185.56249,401.67693 185.5625,401.6875 C 185.56287,402.39644 185.6931,403.1194 185.90625,403.84375 C 187.20512,410.52338 190.54677,415.20281 199.21875,412.84375 C 213.94601,412.39423 212.0324,405.33761 205.1875,400.78125 C 204.84044,397.90615 203.57349,395.66557 199.6875,395.9375 C 197.35606,395.45197 195.36667,395.28491 193.65625,395.34375 z "
     style="fill:#9c6000;fill-opacity:1;stroke:none;stroke-width:1;stroke-miterlimit:4;stroke-dasharray:none;stroke-opacity:1"
     id="path14501" />
  <g
     id="g3291">
    <path
       d="M 117.75,224.15625 C 97.60318,223.88318 74.046834,255.01799 102.78125,258.125 C 117.18744,245.60322 134.02746,250.98724 149.90625,258.75 C 148.60824,258.92991 147.2967,259.13271 146,259.40625 C 128.08151,266.48119 140.94186,275.29364 154.5,278.71875 C 152.37437,279.98245 151.59337,281.57386 151.78125,283 C 149.71096,284.45665 147.55206,285.90447 145.4375,287.375 C 143.96583,284.89994 141.78602,283.12486 138.09375,282.9375 C 134.79238,282.21458 132.05577,281.91295 129.8125,281.96875 C 116.54168,282.29888 120.74754,294.70516 129.90625,301.03125 C 125.15287,301.83355 120.57109,302.96038 116.59375,305.21875 C 121.01477,330.60681 173.37748,316.55665 179.625,292.375 C 177.88548,291.90606 176.33344,291.02414 174.84375,290.03125 C 181.55039,281.68722 183.95191,271.01435 175.59375,262.15625 C 175.27002,262.22608 174.94873,262.30517 174.625,262.375 C 175.39536,260.85455 176.16717,259.33485 176.9375,257.8125 C 172.16268,236.61306 141.81675,229.24175 122.75,224.9375 C 121.12544,224.42725 119.45736,224.17939 117.75,224.15625 z "
       style="fill:#b87c00;fill-opacity:1;stroke:none;stroke-width:1;stroke-miterlimit:4;stroke-dasharray:none;stroke-opacity:1"
       id="path14354" />
    <path
       d="M 163.28125,281.8125 C 160.56369,281.87052 157.94661,284.58316 157.03125,287.375 C 156.77856,287.68669 156.54533,288.00797 156.34375,288.375 C 154.38565,292.06318 156.87446,296.88042 160.6875,298.125 C 156.77774,302.22131 152.12347,305.87742 146.59375,307.4375 C 145.99368,309.64812 146.17382,312.51408 148.34375,313.8125 C 151.24935,315.45056 154.7633,314.83792 157.84375,314.09375 C 164.9264,312.11944 171.50083,308.17922 176.5625,302.84375 C 180.10117,299.05919 182.88697,293.96429 182.15625,288.625 C 181.87026,286.45624 181.01885,284.37801 179.8125,282.5625 C 178.16667,282.46875 176.52083,282.375 174.875,282.28125 C 172.80443,283.75623 171.15971,285.72687 169.53125,287.65625 C 168.95188,286.85848 168.43377,285.66755 167.71875,284.84375 C 166.42535,282.62844 164.83942,281.77923 163.28125,281.8125 z "
       style="fill:#9c6000;fill-opacity:1;stroke:none;stroke-width:1;stroke-miterlimit:4;stroke-dasharray:none;stroke-opacity:1"
       id="path14507" />
    <path
       d="M 153,243.75 C 142.69692,244.19893 152.59191,255.32253 161.03125,263.28125 C 155.41673,267.41653 155.4782,277.61229 171.8125,278.78125 C 173.41539,275.11384 176.08056,272.00218 177.03125,268.03125 C 176.83597,267.7736 176.63433,267.55274 176.4375,267.3125 C 182.71911,262.25337 167.47294,248.20163 160.9375,244.6875 C 157.51566,243.95314 154.90489,243.667 153,243.75 z "
       style="fill:#9c6000;fill-opacity:1;stroke:none;stroke-width:1;stroke-miterlimit:4;stroke-dasharray:none;stroke-opacity:1"
       id="path14513" />
  </g>
  <path
     d="M 69.42302,310.48508 C 72.74118,299.44844 51.36327,264.19238 75.23862,273.46452 C 78.73461,283.53184 95.32546,320.20501 69.42302,310.48508 z "
     style="fill:#9c6000;fill-opacity:1;stroke:none;stroke-width:1;stroke-miterlimit:4;stroke-dasharray:none;stroke-opacity:1"
     id="path14517" />
  <path
     d="M 358.65765,268.09262 C 335.75332,276.59081 350.9511,311.97682 332.48798,312.97202 C 322.10552,297.87418 332.71734,262.8628 353.60652,264.72663 L 356.13208,266.40963 L 358.65765,268.09263 L 358.65765,268.09262 z "
     style="fill:#9c6000;fill-opacity:1;stroke:none;stroke-width:1;stroke-miterlimit:4;stroke-dasharray:none;stroke-opacity:1"
     id="path14519" />
  <path
     d="M 104.46875,433.90625 C 91.05986,440.59295 73.46406,439.94072 58.46197,446.64649 C 45.28737,452.57469 39.54022,466.61897 27.65936,474.44176 C 17.4152,483.31391 9.67689,494.82263 5.15974,507.46233 C -5.98022,520.43817 8.92199,531.51951 21.61765,532.81924 C 35.6311,535.94562 49.95921,531.39708 63.81549,531.75934 C 92.30229,539.5315 121.07612,552.24988 151.24544,547.13609 C 191.84615,542.60542 231.28613,528.63675 272.54157,530.21005 C 285.33886,530.83276 298.3352,526.86428 310.59052,531.84569 C 327.42016,535.57836 344.87143,535.392 362.01058,534.77841 C 376.45094,533.45383 397.55082,529.0333 398.99371,511.34008 C 398.29195,497.89018 384.33132,489.72152 377.01356,479.1073 C 368.01321,468.32266 353.79027,464.9112 344.50708,454.52716 C 333.52304,445.12925 319.6563,438.51139 305.32371,437.3901 C 294.33565,444.28518 280.35871,440.17706 268.34768,446.50735 C 253.21255,451.92012 238.81303,459.89043 227,470.875 C 206.66438,478.54306 183.17469,480.74882 162.90625,471.65625 C 145.04506,477.75231 139.65736,456.88175 130,447.1875 C 125.80208,437.86244 113.85899,434.4253 104.46875,433.90625 z "
     style="fill:#b87c00;fill-opacity:1;stroke:none;stroke-width:1;stroke-miterlimit:4;stroke-dasharray:none;stroke-opacity:1"
     id="path14533" />
  <path
     d="M 299.90625,435.25 C 288.70699,435.34431 269.40468,439.42294 269.52338,451.35073 C 257.01005,454.91322 244.98532,459.97259 233.15625,465.34375 C 234.11808,475.43105 214.70349,472.97127 206.62462,473.57302 C 192.37976,472.81809 178.46689,469.3272 164.28125,468.03125 C 157.07421,478.7653 143.58749,474.2931 140.64133,462.91168 C 138.35803,454.29831 121.89315,436.46977 119.24686,453.37009 C 122.98407,463.54839 129.61787,471.73196 130.67194,482.8328 C 133.19757,491.8736 151.90589,487.85847 140.71808,495.90804 C 137.72667,501.52073 146.03773,501.04973 138.53125,504.40625 C 127.54979,505.11541 123.65413,514.33722 116.31355,520.54241 C 111.67687,525.1711 110.35313,532.77475 102.3125,531.15625 C 102.02327,546.9358 122.3526,542.79466 132.47361,545.79493 C 145.10387,545.42999 155.20912,555.04269 168.26959,553.06447 C 181.27522,553.10549 186.93635,540.70514 200.40324,541.3241 C 232.20914,535.25843 264.52802,543.09438 296.48756,540.07893 C 308.97099,541.00367 320.73692,535.20282 333.22668,536.73719 C 343.73351,535.01971 353.32617,538.74828 363.66555,539.04101 C 378.43242,538.1959 395.86014,533.18055 402.7852,518.87468 C 407.10213,508.25191 395.56794,499.16078 390.83147,496.56252 C 387.00219,485.36258 374.04708,483.0531 369.65275,473.15996 C 360.61415,462.80923 347.58341,457.41383 336.3696,449.95007 C 328.80019,446.18108 320.98886,451.42957 318.92812,441.33911 C 314.00366,436.41524 306.56667,435.3145 299.90625,435.25 z M 283.34375,465.375 C 282.48234,470.95845 288.2517,473.17129 280.09375,473.78125 C 264.92292,476.56991 248.73128,480.82854 238.09375,492.8125 C 224.52902,496.37183 207.49106,503.84883 194.7642,497.26281 C 184.60155,491.30482 174.40853,498.79978 166.18806,490.64427 C 156.68717,490.13319 174.33365,484.51889 177.56973,487.85502 C 202.3853,495.28267 230.99442,494.70761 253.1875,480.15625 C 266.82881,473.5681 266.42818,465.90704 283.34375,465.375 z "
     style="fill:#985c00;fill-opacity:1;stroke:none;stroke-width:1;stroke-miterlimit:4;stroke-dasharray:none;stroke-opacity:1"
     id="path14554" />
  <path
     d="M 222.96875,2.90625 C 212.87642,2.18554 194.74111,13.67016 207.375,22.40625 C 193.99955,24.03547 181.33078,28.0211 168.64327,30.88381 C 153.31231,25.14236 143.45061,57.37392 161.26556,54.13963 C 169.6244,49.32058 163.16386,44.24736 174.24113,46.29303 C 183.61613,41.6257 209.40694,32.44671 205.01531,49.91273 C 208.36944,57.74636 221.55164,70.74334 204.94626,67.4156 C 187.77279,68.42434 170.80887,72.62529 155.0625,79.53125 C 160.33085,96.56574 180.52411,89.22777 192.96274,86.02111 C 203.42406,88.82897 208.93259,105.53669 217.58984,113.47185 C 224.25288,131.6174 200.74078,140.53352 186.97265,143.4478 C 172.96075,151.042 160.1776,135.83896 145.36476,135.59888 C 112.24387,127.26602 76.163641,139.70262 52.9375,164.1875 C 41.403751,173.84437 38.945419,192.02507 43.511568,205.78532 C 48.965853,217.32512 65.325942,209.65438 56.416824,198.99697 C 54.460453,178.87249 72.895434,164.13173 89.549716,156.92656 C 108.47905,146.52135 131.45167,148.48549 151.70349,153.11901 C 166.45799,157.25012 178.88695,168.1068 194.83152,168.17577 C 219.96615,170.73778 242.84909,157.91038 267.42284,155.51233 C 281.64853,153.15243 300.48602,154.02047 309.57091,166.5691 C 327.7725,184.58918 324.78904,220.89799 348.22079,217.08239 C 348.17739,236.68595 370.54054,226.91679 373.49307,214.07402 C 379.24109,200.79177 375.62417,185.70972 370.25,172.9375 C 369.90907,157.80072 351.01619,150.89161 355.20335,134.13165 C 348.87069,114.1354 329.36058,100.71717 309.8125,95.46875 C 299.3392,85.35039 286.55307,74.21462 276.38772,66.81846 C 275.48366,52.84554 270.13152,37.4177 257.25,30.09375 C 253.17106,18.56597 231.58789,24.66846 238.39304,11.72801 C 237.50065,4.50228 228.945,2.77219 222.96875,2.90625 z "
     style="fill:#985c00;fill-opacity:1;stroke:none;stroke-width:1;stroke-miterlimit:4;stroke-dasharray:none;stroke-opacity:1"
     id="path14586" />
  <path
     d="M 214.21875,4.96875 C 206.34075,4.7007087 203.55946,14.772075 205.67671,19.419567 C 198.27445,25.625028 211.25681,33.744927 217.14093,35.887373 C 224.12156,41.020383 243.56157,40.060348 239.06039,51.54563 C 235.2259,57.255226 226.8161,62.390764 233.41336,70.341947 C 240.60521,74.765055 249.36136,70.526636 254.625,79.1875 C 263.25739,91.750933 268.99524,109.29811 261.12882,123.57114 C 257.91799,133.67487 243.14301,130.49195 240.66805,138.84498 C 237.83696,144.38827 241.94016,150.46214 247.53125,149.09375 C 250.50303,158.519 261.13656,148.38944 268.0362,151.35474 C 274.66439,154.54256 291.45059,150.59714 288.4375,160.71875 C 298.45106,159.03828 309.13513,160.47405 319.04105,163.08818 C 328.57588,166.06279 335.30788,174.33885 342.91125,179.80062 C 349.13158,186.79311 354.78053,197.39347 348.7729,206.46291 C 338.92619,212.86528 361.3463,220.82566 362.0625,209.375 C 372.3341,207.03957 371.44651,192.99226 371.56774,184.71855 C 371.32987,175.78708 369.11932,163.95553 361.2655,160.67747 C 359.08543,152.19715 356.57879,142.89679 351.44819,135.77985 C 346.05408,128.81938 332.13732,129.30432 332.78151,119.50917 C 334.15914,108.45114 322.75674,106.5235 317.5693,99.47703 C 312.07346,94.05777 304.2545,81.420889 296.21105,89.992535 C 294.62575,95.766566 295.32211,93.425793 289.90913,92.027052 C 283.47584,86.836056 277.55281,75.06999 269.45302,68.95361 C 265.67509,63.916044 271.71294,54.090657 267.24525,47.008042 C 264.1085,39.345083 259.43621,31.280206 251.82252,27.520933 C 244.00817,26.745329 231.73446,25.637663 229.00249,19.453408 C 231.99079,11.284986 220.96923,5.0754633 214.21875,4.96875 z "
     style="fill:#8c5000;fill-opacity:1;stroke:none;stroke-width:1;stroke-miterlimit:4;stroke-dasharray:none;stroke-opacity:1"
     id="path14702" />
  <path
     d="M 227.5625,5.875 C 220.80853,7.9360208 223.29042,18.094768 229.0016,19.947141 C 232.19049,29.584129 239.15747,37.110138 247.48697,42.650535 C 255.82909,49.808768 253.41994,63.815862 259.11341,72.930822 C 263.30373,80.163177 260.96953,90.174446 270.07369,94.155837 C 278.84254,95.046855 282.1673,104.05497 288.84741,108.42911 C 292.93086,112.6091 302.69853,108.91794 296.98053,116.80726 C 297.6705,126.444 289.35403,132.53175 288.0582,141.9788 C 284.19057,152.73898 301.56961,140.86989 298.68243,149.18443 C 293.84863,157.6444 308.83545,159.81415 314.57797,161.67389 C 322.75781,163.87569 331.82502,166.06786 336.7546,173.66344 C 342.72432,179.00649 352.06116,182.6276 349.73521,192.74426 C 349.99021,203.5282 341.37869,214.38355 347.28125,224.84375 C 354.8262,230.55712 366.86023,224.42924 368.79902,215.63875 C 373.77137,204.0585 364.83915,192.02008 369.61369,180.82177 C 369.06025,162.41834 360.73828,143.68626 345.78125,132.46875 C 347.79198,122.61141 338.80492,114.94732 331.92534,109.45214 C 323.69424,105.7868 315.95881,101.35211 309.18582,95.342929 C 302.21388,89.956151 294.21165,86.109221 285.87546,83.405982 C 281.00947,76.890349 273.40483,72.562831 274.44976,63.423948 C 272.55041,57.380073 274.32553,49.665082 269.90763,44.813306 C 264.94884,39.042204 259.99004,33.271102 255.03125,27.5 C 251.79279,28.949557 240.20593,24.469188 244.78124,17.846448 C 241.70393,9.6767586 235.70485,6.8974148 227.5625,5.875 z "
     style="fill:#6d3e00;fill-opacity:1;stroke:none;stroke-width:1;stroke-miterlimit:4;stroke-dasharray:none;stroke-opacity:1"
     id="path15677" />
  <g
     transform="translate(-460,-20)"
     id="g3249">
    <path
       d="M 781.3125,293.59375 C 775.05663,293.33143 760.80044,316.57391 763.09375,327.6875 C 762.24371,341.11162 764.81893,357.89558 763.03125,372.59375 C 756.02781,379.71885 749.15096,389.4531 738.5,391.75 C 720.27966,401.74135 689.82118,411.48786 688.8125,435.28125 C 668.98266,438.64796 646.72706,457.07745 628.75,445.15625 C 628.17891,440.7491 624.1205,434.70147 618,431.84375 C 600.72361,408.07962 570.89939,401.4703 549.1875,383.15625 C 534.12649,387.7733 548.71338,399.01403 555.96875,402.65625 C 557.78863,403.18427 559.56333,403.80103 561.28125,404.46875 C 557.46376,410.54227 575.75528,414.33437 586.875,420.84375 C 596.4779,429.20028 605.27858,438.74924 615.25,446.8125 C 617.43946,448.13385 619.31407,449.0266 620.9375,449.59375 C 622.04271,454.25884 626.33878,457.73289 631.96875,459.875 C 603.69763,456.31157 634.92816,482.82708 649,475.71875 C 651.72137,474.42355 654.69227,473.48823 657.8125,472.78125 C 660.62083,478.08333 668.79844,480.99432 677.96875,481.21875 C 683.51555,502.3648 701.24611,471.33996 715.09375,466.46875 C 715.68076,467.16874 716.33283,467.82082 717.09375,468.375 C 743.33015,477.3671 716.6204,439.5866 736.75,435.78125 C 736.49613,434.87119 736.22202,434.02355 735.9375,433.25 C 737.07455,431.45991 737.93018,429.41208 738.375,427 C 736.29526,426.09881 734.25166,425.49986 732.25,425.15625 C 746.08618,420.22625 759.65166,413.35662 771.0625,405.375 C 802.4885,392.66393 781.43528,362.4467 782.375,339.5 C 780.68039,337.46553 779.0508,336.30929 777.53125,335.8125 C 777.30423,321.99744 777.85732,308.28953 783.4375,295.25 C 782.94211,294.1483 782.2062,293.63122 781.3125,293.59375 z M 741.75,404.46875 C 741.96681,404.95342 742.21989,405.40981 742.46875,405.8125 C 740.23682,406.71878 737.8601,407.43597 735.4375,408.0625 C 737.5535,406.92753 739.66235,405.74431 741.75,404.46875 z M 709.34375,431.40625 C 697.99451,438.88619 687.52614,450.86797 676.90625,457.46875 C 672.15801,458.10871 667.3545,458.54716 662.53125,458.84375 C 664.53446,457.75761 666.25843,456.45559 667.5625,454.84375 C 670.64527,451.91496 684.47686,444.3724 691,439.4375 C 694.00913,440.12754 701.59233,436.80439 707.15625,431.8125 C 707.88612,431.68907 708.60894,431.54386 709.34375,431.40625 z "
       style="fill:#b87c00;fill-opacity:1;stroke:none;stroke-width:1;stroke-miterlimit:4;stroke-dasharray:none;stroke-opacity:1"
       id="path14521" />
    <path
       d="M 783.9375,325.8125 C 775.18771,332.26092 773.79902,343.98632 774.90625,354.03125 C 775.50312,363.94947 778.05929,374.41824 774.25,384 C 755.15262,403.26708 727.43468,408.29845 704.1875,420.625 C 699.10008,422.75423 690.28755,429.21201 695.46875,435.09375 C 697.53792,436.37539 706.65404,432.98702 701,436.125 C 700.01733,436.47371 699.03682,436.85252 698.0625,437.25 C 697.15946,437.30568 696.28434,437.35269 695.4375,437.3125 C 695.67873,437.57498 695.90874,437.8267 696.15625,438.0625 C 691.11848,440.33301 686.3964,443.40026 682.9375,447.75 C 677.68348,448.54292 679.20386,457.55964 681.125,460.375 C 693.52202,464.11394 706.77552,464.31968 718.9375,468.96875 C 724.1727,465.5984 723.98204,458.61527 721.21875,454.53125 C 724.87348,447.9493 727.32546,440.53944 732.375,434.84375 C 732.30489,432.97556 731.26719,431.12978 730.46875,429.53125 C 734.52761,426.78303 738.5276,424.03293 742.3125,421.9375 C 754.15992,417.79581 765.83107,412.59065 774.03125,402.8125 C 786.09264,392.24788 789.68506,375.35343 788.375,359.96875 C 787.68752,348.49057 785.33118,337.20841 783.9375,325.8125 z M 732.6875,425.03125 C 731.67665,425.51295 730.67541,425.97158 729.625,426.46875 C 729.84572,425.70976 730.73661,425.21052 732.6875,425.03125 z M 720.25,429.625 C 720.02623,430.18493 719.74679,430.64579 719.46875,431.0625 C 717.24798,432.00757 715.01934,432.91585 712.8125,433.71875 C 712.80334,433.72208 712.7904,433.71542 712.78125,433.71875 C 712.32349,433.7249 711.85343,433.71606 711.375,433.71875 C 714.24583,432.17345 717.22696,430.8421 720.25,429.625 z "
       style="fill:#985c00;fill-opacity:1;stroke:none;stroke-width:1;stroke-miterlimit:4;stroke-dasharray:none;stroke-opacity:1"
       id="path14584" />
    <path
       d="M 716.91885,442.31827 C 716.87793,422.18689 731.03688,444.93966 725.04237,452.91802 C 734.18005,471.41036 705.86665,471.34215 713.47656,452.10725 C 713.90765,440.99346 734.82612,414.15817 738.37597,424.68006 C 738.6133,437.04531 699.02299,453.00932 712.03255,435.70834 C 735.63127,427.89921 722.55352,448.12817 707.66533,446.36842 C 688.38718,453.53926 693.29474,437.55631 709.15229,439.00721 C 718.07306,435.70997 750.71374,423.89983 726.30073,437.90998 C 720.19261,445.81715 687.38565,451.23159 697.00481,439.95423 C 705.12963,435.99744 736.92847,428.48466 717.43468,444.02449 C 684.5583,440.35078 750.93389,403.29652 739.05872,433.91536 C 723.17705,435.09463 722.91366,487.92162 711.82803,453.77456 C 706.49564,443.2197 724.56861,427.01052 723.06444,439.25144 C 721.3185,440.18679 719.34483,444.92188 716.91885,442.31827 z "
       style="fill:#6d3e00;fill-opacity:1;stroke:none;stroke-width:1;stroke-miterlimit:4;stroke-dasharray:none;stroke-opacity:1"
       id="path15685" />
  </g>
  <path
     d="M 306.22871,435.54545 C 297.54726,435.31234 297.19261,439.04361 296.55972,446.7886 C 299.57498,455.12495 285.2206,448.58671 280.02947,449.99665 C 271.35772,449.63334 262.49198,449.50579 254.0625,451.875 C 241.92513,470.26295 220.25694,485.36034 197.34475,481.49377 C 191.83249,482.78367 183.74714,472.58446 181.53125,479.75 C 174.91389,485.33785 185.37163,491.24207 190.37053,493.06104 C 205.40069,498.22196 222.74824,498.32062 237.32635,491.67019 C 243.55056,485.15889 248.08665,472.43543 258.42698,471.73658 C 265.856,472.93586 278.26145,471.59572 282.55451,473.20705 C 275.92894,481.11695 281.84598,490.63026 284.23027,498.7336 C 283.95469,510.2258 269.87926,514.59208 260.41113,516.87863 C 243.12938,521.60701 225.61874,526.01187 207.95764,528.82031 C 198.89799,528.35919 190.02437,530.56643 181.32586,532.43124 C 170.50019,536.36057 179.19139,548.97028 188.2018,547.73083 C 199.69418,548.28439 210.57111,543.57623 221.56413,541.34459 C 239.00423,541.42188 256.47703,541.17204 273.65625,539.96875 C 284.05139,544.48854 296.36031,543.3677 306.625,539 C 318.23822,540.07455 328.58677,532.63073 339.14778,531.91167 C 347.36382,532.25058 353.69581,537.89645 362.38734,537.45552 C 375.52823,538.62707 389.93942,539.96796 401.96355,533.44006 C 412.29249,527.46454 408.166,514.0166 402.88375,506.07782 C 385.23747,474.33342 355.77318,449.47368 321.6875,437.03125 C 319.64696,433.70427 310.13769,435.44131 306.22871,435.54545 z M 296.65625,483.25 C 298.24798,482.53745 296.54705,484.78079 296.65625,483.25 z M 299.5,493.4375 C 299.15121,495.05515 298.59711,492.96244 299.5,493.4375 z "
     style="fill:#6d3e00;fill-opacity:1;stroke:none;stroke-width:1;stroke-miterlimit:4;stroke-dasharray:none;stroke-opacity:1"
     id="path15687" />
  <g
     transform="translate(-229.06921,-45.6205)"
     id="layer1">
    <g
       id="g14221">
      <path
         d="M 419.25034,326.03043 C 415.05456,342.94883 421.3307,361.92254 416.00357,377.66211 C 412.9249,364.11915 409.29802,333.2107 419.25034,326.03043 z "
         style="opacity:1;fill:#2e3436;fill-opacity:1;stroke:none;stroke-width:1;stroke-miterlimit:4;stroke-dasharray:none;stroke-opacity:1"
         id="path13995" />
      <path
         d="M 392.31964,366.90268 C 386.56764,380.6824 385.4227,392.63887 404.11135,394.25308 C 415.04438,399.53794 419.28133,406.26547 404.24906,399.80855 C 388.4868,392.0001 371.33836,393.65797 392.31964,366.90268 z "
         style="opacity:1;fill:#2e3436;fill-opacity:1;stroke:none;stroke-width:1;stroke-miterlimit:4;stroke-dasharray:none;stroke-opacity:1"
         id="path13997" />
      <path
         d="M 448.86755,371.40536 C 471.0348,396.12147 428.35111,392.70724 414.4227,395.53317 C 423.65394,384.10645 461.32427,394.6054 446.47307,374.08455 C 447.27123,373.19149 448.06939,372.29843 448.86755,371.40536 z "
         style="opacity:1;fill:#2e3436;fill-opacity:1;stroke:none;stroke-width:1;stroke-miterlimit:4;stroke-dasharray:none;stroke-opacity:1"
         id="path13999" />
      <path
         d="M 445.98849,309.72137 C 466.02591,298.59418 495.22988,290.67305 513.90973,307.48605 C 499.58163,300.33585 476.61418,300.54532 460.44322,308.94987 C 454.14725,310.65776 448.24142,320.2807 445.98849,309.72137 z "
         style="opacity:1;fill:#2e3436;fill-opacity:1;stroke:none;stroke-width:1;stroke-miterlimit:4;stroke-dasharray:none;stroke-opacity:1"
         id="path14001" />
      <path
         d="M 446.21655,318.77979 C 466.43546,318.539 486.72652,317.51819 507.11671,317.6738 C 536.39958,318.91236 492.20822,323.31289 483.0876,325.0437 C 474.51738,322.82623 439.30754,335.67125 446.21655,318.77979 z "
         style="opacity:1;fill:#2e3436;fill-opacity:1;stroke:none;stroke-width:1;stroke-miterlimit:4;stroke-dasharray:none;stroke-opacity:1"
         id="path14003" />
      <path
         d="M 455.55157,338.05139 C 463.51124,342.36085 491.5015,346.74411 491.33649,346.918 C 482.07191,346.38789 454.06566,349.68925 455.55157,338.05139 z "
         style="opacity:1;fill:#2e3436;fill-opacity:1;stroke:none;stroke-width:1;stroke-miterlimit:4;stroke-dasharray:none;stroke-opacity:1"
         id="path14005" />
      <path
         d="M 406.42154,316.4436 C 390.61228,304.33176 370.09494,293.51376 349.99719,297.3494 C 371.08765,293.02462 391.63263,302.23756 409.52078,312.48049 C 408.4877,313.80153 407.45462,315.12257 406.42154,316.4436 z "
         style="opacity:1;fill:#2e3436;fill-opacity:1;stroke:none;stroke-width:1;stroke-miterlimit:4;stroke-dasharray:none;stroke-opacity:1"
         id="path14007" />
      <path
         d="M 408.83759,327.97852 C 386.10412,328.93825 365.09797,327.52842 343.69164,321.10473 C 332.77427,321.95844 324.82288,324.07118 340.1208,318.21239 C 359.92288,316.61494 379.83435,321.01836 399.90693,320.05072 C 409.31264,320.4884 411.16435,318.67921 408.83759,327.97852 z "
         style="opacity:1;fill:#2e3436;fill-opacity:1;stroke:none;stroke-width:1;stroke-miterlimit:4;stroke-dasharray:none;stroke-opacity:1"
         id="path14009" />
      <path
         d="M 357.89734,334.97702 C 367.36506,346.27844 383.17934,347.77454 396.39908,345.7659 C 386.66116,353.49155 351.40521,349.34 357.89734,334.97702 z "
         style="opacity:1;fill:#2e3436;fill-opacity:1;stroke:none;stroke-width:1;stroke-miterlimit:4;stroke-dasharray:none;stroke-opacity:1"
         id="path14011" />
      <path
         d="M 389.25903,415.93109 C 377.64742,433.17868 382.23834,401.18874 390.15466,413.18153 C 384.59267,422.79892 371.61586,426.43963 383.62808,412.41903 C 399.17388,411.20761 372.00393,428.99507 384.22521,412.46505 C 385.90315,413.6204 387.58109,414.77574 389.25903,415.93109 z "
         style="opacity:1;fill:#2e3436;fill-opacity:1;stroke:none;stroke-width:1;stroke-miterlimit:4;stroke-dasharray:none;stroke-opacity:1"
         id="path14023" />
      <path
         d="M 389.00699,416.03864 C 400.04662,423.22349 412.93666,418.90322 424.68781,419.40144 C 440.80226,418.53333 456.71783,418.65919 471.5606,411.04345 C 481.57008,415.69117 450.33251,425.92511 443.58594,424.76599 C 432.91835,425.24549 424.6877,424.41672 413.96244,425.86924 C 407.5274,424.7463 380.59094,426.182 389.00699,416.03864 z "
         style="opacity:1;fill:#2e3436;fill-opacity:1;stroke:none;stroke-width:1;stroke-miterlimit:4;stroke-dasharray:none;stroke-opacity:1"
         id="path14025" />
      <path
         d="M 468.63678,405.95563 C 489.88516,410.12752 470.25882,423.57242 467.03917,410.09525 C 467.57171,408.71538 468.10424,407.3355 468.63678,405.95563 z "
         style="opacity:1;fill:#2e3436;fill-opacity:1;stroke:none;stroke-width:1;stroke-miterlimit:4;stroke-dasharray:none;stroke-opacity:1"
         id="path14027" />
      <path
         d="M 403.49304,436.57666 C 416.77047,448.07146 437.96618,439.82149 454.3066,440.58063 C 464.21833,451.50772 426.28341,445.53728 417.26362,448.57006 C 411.95576,449.8666 392.99494,442.30452 403.49304,436.57666 z "
         style="opacity:1;fill:#2e3436;fill-opacity:1;stroke:none;stroke-width:1;stroke-miterlimit:4;stroke-dasharray:none;stroke-opacity:1"
         id="path14029" />
      <path
         d="M 433.39041,294.42197 C 451.13482,278.74979 475.05168,265.13924 499.576,268.6107 C 512.5061,267.46485 541.3103,295.26689 515.81387,277.14803 C 488.47703,261.18009 456.06021,278.03086 435.90677,297.80335 C 435.06798,296.67622 434.2292,295.54909 433.39041,294.42197 z "
         style="opacity:1;fill:#2e3436;fill-opacity:1;stroke:none;stroke-width:1;stroke-miterlimit:4;stroke-dasharray:none;stroke-opacity:1"
         id="path14039" />
      <path
         d="M 316.95239,290.3017 C 335.75888,273.59533 364.27014,265.39956 386.3999,281.44481 C 393.69543,285.55871 415.31762,300.38232 408.0833,306.28219 C 393.44998,280.97121 356.78123,263.61118 330.85967,283.28566 C 327.5266,283.7352 318.06224,298.74778 316.95239,290.3017 z "
         style="opacity:1;fill:#2e3436;fill-opacity:1;stroke:none;stroke-width:1;stroke-miterlimit:4;stroke-dasharray:none;stroke-opacity:1"
         id="path14043" />
      <path
         d="M 290.57281,260.0018 C 295.78519,282.11265 301.82914,303.95748 306.29746,326.2189 C 315.44024,346.74491 317.08412,369.30007 311.78946,390.97417 C 304.47611,414.0147 326.71072,430.03183 344.07278,439.51517 C 353.26607,441.61356 375.48674,453.41767 353.11725,446.70105 C 334.23015,439.00512 310.77233,425.83591 307.47495,403.94913 C 307.29582,384.8899 314.45341,366.41324 309.73568,347.4681 C 302.42903,328.17098 299.53471,307.77108 293.76103,287.99348 C 295.84766,280.1875 281.95986,262.44831 290.57281,260.0018 z "
         style="opacity:1;fill:#2e3436;fill-opacity:1;stroke:none;stroke-width:1;stroke-miterlimit:4;stroke-dasharray:none;stroke-opacity:1"
         id="path14045" />
      <path
         d="M 575.82397,260.0018 C 570.61158,282.11264 564.56767,303.95748 560.09931,326.2189 C 550.95657,346.74492 549.31265,369.30007 554.60733,390.97417 C 561.92067,414.0147 539.68608,430.03184 522.32401,439.51517 C 513.13071,441.61355 490.91005,453.41767 513.27954,446.70105 C 532.16664,439.00511 555.62446,425.83591 558.92184,403.94913 C 559.10096,384.8899 551.94337,366.41323 556.66111,347.4681 C 563.96777,328.17099 566.86208,307.77108 572.63575,287.99348 C 570.54913,280.1875 584.43693,262.44831 575.82397,260.0018 z "
         style="opacity:1;fill:#2e3436;fill-opacity:1;stroke:none;stroke-width:1;stroke-miterlimit:4;stroke-dasharray:none;stroke-opacity:1"
         id="path14047" />
      <path
         d="M 507.04541,448.60577 C 480.50451,453.04878 464.66578,477.99829 440.00965,485.6713 C 420.56306,491.30859 396.26405,491.21783 382.99569,473.30479 C 379.46435,463.40262 351.9468,450.4042 358.19332,445.89747 C 381.75089,452.83292 389.3036,487.29123 417.29888,483.90696 C 440.99294,485.96238 458.94243,469.70449 477.05215,457.24517 C 483.51561,455.49143 506.07929,437.78479 507.04541,448.60577 z "
         style="opacity:1;fill:#2e3436;fill-opacity:1;stroke:none;stroke-width:1;stroke-miterlimit:4;stroke-dasharray:none;stroke-opacity:1"
         id="path14053" />
      <path
         d="M 417.9278,467.84369 C 437.59473,464.26449 424.10819,481.72284 417.9278,467.84369 z "
         style="opacity:1;fill:#2e3436;fill-opacity:1;stroke:none;stroke-width:1;stroke-miterlimit:4;stroke-dasharray:none;stroke-opacity:1"
         id="path14055" />
      <path
         d="M 571.93457,275.95404 C 584.64127,255.90246 620.83413,271.48069 603.55768,293.26138 C 586.43514,307.53096 579.46169,334.22297 585.33615,355.42704 C 591.75631,372.37127 583.00528,401.50308 560.48672,396.59374 C 544.60589,392.2331 581.24393,398.00932 579.38871,383.54109 C 589.83072,364.28741 570.64165,343.90545 580.80329,324.23559 C 575.39893,302.62244 618.10166,286.83083 594.29344,271.49355 C 585.01758,267.18574 577.21076,285.38076 571.93457,275.95404 z "
         style="opacity:1;fill:#2e3436;fill-opacity:1;stroke:none;stroke-width:1;stroke-miterlimit:4;stroke-dasharray:none;stroke-opacity:1"
         id="path14057" />
      <path
         d="M 577.06647,301.04889 C 577.1721,318.39223 552.76277,335.43714 569.59354,354.5344 C 573.87353,368.57266 565.55285,371.79347 565.53421,355.99726 C 550.73989,336.0557 568.82846,314.72195 577.06647,301.04889 z "
         style="opacity:1;fill:#2e3436;fill-opacity:1;stroke:none;stroke-width:1;stroke-miterlimit:4;stroke-dasharray:none;stroke-opacity:1"
         id="path14059" />
      <path
         d="M 567.40454,345.89368 C 562.01301,360.99673 558.74162,342.46862 567.40454,345.89368 z "
         style="opacity:1;fill:#2e3436;fill-opacity:1;stroke:none;stroke-width:1;stroke-miterlimit:4;stroke-dasharray:none;stroke-opacity:1"
         id="path14061" />
      <path
         d="M 292.84222,275.95404 C 280.1355,255.90248 243.94262,271.48066 261.21908,293.26138 C 278.34161,307.53096 285.31509,334.22298 279.44061,355.42704 C 273.02047,372.37127 281.77147,401.50308 304.29004,396.59374 C 320.17085,392.2331 283.53283,398.00932 285.38806,383.54109 C 274.94604,364.28742 294.13509,343.90545 283.97348,324.23559 C 289.37781,302.62245 246.67512,286.83082 270.48331,271.49355 C 279.75921,267.18574 287.56598,285.38077 292.84222,275.95404 z "
         style="opacity:1;fill:#2e3436;fill-opacity:1;stroke:none;stroke-width:1;stroke-miterlimit:4;stroke-dasharray:none;stroke-opacity:1"
         id="path14063" />
      <path
         d="M 287.7103,301.04889 C 287.60466,318.39223 312.01399,335.43713 295.18322,354.5344 C 290.90323,368.57266 299.22392,371.79348 299.24255,355.99726 C 314.03687,336.05569 295.94831,314.72196 287.7103,301.04889 z "
         style="opacity:1;fill:#2e3436;fill-opacity:1;stroke:none;stroke-width:1;stroke-miterlimit:4;stroke-dasharray:none;stroke-opacity:1"
         id="path14065" />
      <path
         d="M 297.37222,345.89368 C 302.76375,360.99673 306.03514,342.46863 297.37222,345.89368 z "
         style="opacity:1;fill:#2e3436;fill-opacity:1;stroke:none;stroke-width:1;stroke-miterlimit:4;stroke-dasharray:none;stroke-opacity:1"
         id="path14067" />
      <path
         d="M 288.293,263.40521 C 272.41744,237.15047 296.69332,213.09672 319.97115,203.36312 C 338.76332,192.51713 362.23606,190.63052 381.73856,200.60311 C 410.57645,211.36321 443.00616,216.91179 472.64454,205.84456 C 500.67003,198.81535 532.05764,200.45656 558.30622,212.84403 C 578.0615,220.3621 592.5447,252.58193 573.03776,267.18303 C 584.49667,246.62221 570.93943,218.38353 547.82225,213.0845 C 519.30586,203.48423 487.28224,203.47912 459.16607,214.54294 C 436.14956,217.89146 412.89324,215.63408 390.78242,208.63421 C 371.47873,200.95157 349.47964,193.39838 329.58101,203.98479 C 310.10023,212.60101 279.85438,229.57232 290.81814,255.32921 C 290.59711,259.21834 294.67378,264.0571 288.293,263.40521 z "
         style="opacity:1;fill:#2e3436;fill-opacity:1;stroke:none;stroke-width:1;stroke-miterlimit:4;stroke-dasharray:none;stroke-opacity:1"
         id="path14069" />
      <path
         d="M 276.0145,266.88611 C 261.46839,248.10301 269.13846,223.17857 269.79316,201.61801 C 280.84374,174.1827 300.73736,150.88849 325.14323,134.1651 C 335.17955,120.80026 372.19686,111.41662 374.95283,116.11516 C 340.97513,121.89538 312.97536,144.68694 291.6349,170.61305 C 274.2627,190.65307 269.84298,216.41123 271.61802,242.11236 C 269.49622,250.87491 279.85133,261.47875 276.0145,266.88611 z "
         style="opacity:1;fill:#2e3436;fill-opacity:1;stroke:none;stroke-width:1;stroke-miterlimit:4;stroke-dasharray:none;stroke-opacity:1"
         id="path14071" />
      <path
         d="M 595.12897,265.66 C 612.60458,249.08519 597.9248,222.30437 593.69573,202.78983 C 583.45903,175.6319 561.43397,154.18623 538.79294,137.1267 C 532.99945,130.41843 500.86507,125.43297 509.55513,119.68892 C 535.58059,126.30657 557.04025,143.63772 573.71621,164.18401 C 596.28788,187.49933 605.62589,220.77627 605.57669,252.53172 C 606.26195,256.08172 598.14597,273.14574 595.12897,265.66 z "
         style="opacity:1;fill:#2e3436;fill-opacity:1;stroke:none;stroke-width:1;stroke-miterlimit:4;stroke-dasharray:none;stroke-opacity:1"
         id="path14073" />
      <path
         d="M 355.10086,123.2487 C 377.78951,115.1738 371.58793,80.612629 395.50348,72.483634 C 416.70681,62.737529 440.78101,65.49218 463.25122,61.477081 C 487.6982,62.388974 507.91067,86.219047 511.17913,108.98022 C 506.1308,118.50843 536.37255,135.42291 516.10516,128.76736 C 502.29296,111.67582 504.88508,82.701483 481.02447,71.156865 C 461.11825,60.838373 438.56543,71.653595 417.41545,71.135257 C 395.74393,71.528239 380.07389,88.640875 375.38717,108.70409 C 374.80294,115.43622 358.70322,131.92051 355.10086,123.2487 z "
         style="opacity:1;fill:#2e3436;fill-opacity:1;stroke:none;stroke-width:1;stroke-miterlimit:4;stroke-dasharray:none;stroke-opacity:1"
         id="path14075" />
      <path
         d="M 427.04099,66.073875 C 426.43888,43.323808 464.02418,34.267689 466.32007,59.534992 C 454.53148,41.319605 433.91235,52.665136 429.19986,66.755518 L 427.96501,66.365625 L 427.04099,66.073875 z "
         style="opacity:1;fill:#2e3436;fill-opacity:1;stroke:none;stroke-width:1;stroke-miterlimit:4;stroke-dasharray:none;stroke-opacity:1"
         id="path14077" />
      <path
         d="M 363.43576,128.76949 C 387.4278,104.37242 405.70668,149.40515 378.41303,159.53575 C 349.13438,173.47916 361.45676,121.00427 376.71604,139.35001 C 370.92846,155.70474 374.8601,128.94355 365.80347,143.03912 C 353.44409,166.25691 395.66719,156.28488 388.55393,135.8381 C 388.61067,114.8599 369.29561,134.00434 363.43576,128.76949 z "
         style="opacity:1;fill:#2e3436;fill-opacity:1;stroke:none;stroke-width:1;stroke-miterlimit:4;stroke-dasharray:none;stroke-opacity:1"
         id="path14079" />
      <path
         d="M 389.93079,135.84219 C 407.66516,111.7417 441.6786,152.13511 412.74585,161.40802 C 393.65207,170.65979 383.84457,138.9512 406.87898,144.62774 C 413.6344,151.50467 384.96583,144.81848 398.66111,157.35544 C 424.99452,171.59202 426.28106,122.7368 399.83635,133.96655 C 394.92853,135.05544 393.2012,143.24415 389.93079,135.84219 z "
         style="opacity:1;fill:#2e3436;fill-opacity:1;stroke:none;stroke-width:1;stroke-miterlimit:4;stroke-dasharray:none;stroke-opacity:1"
         id="path14081" />
      <path
         d="M 446.60757,131.37984 C 432.65893,103.68405 404.8159,148.73128 435.2046,148.46266 C 457.06613,137.38921 413.97559,138.9806 433.60872,132.77287 C 466.41967,141.65599 418.41695,167.22799 416.89767,137.54488 C 412.26584,114.90422 453.66365,114.48003 447.29272,131.07319 L 446.60757,131.37984 z "
         style="opacity:1;fill:#2e3436;fill-opacity:1;stroke:none;stroke-width:1;stroke-miterlimit:4;stroke-dasharray:none;stroke-opacity:1"
         id="path14083" />
      <path
         d="M 461.64844,153.14394 C 440.6834,152.2353 438.34618,115.28268 463.88947,120.83307 C 489.55233,118.86544 472.94216,161.78475 457.66801,140.42602 C 457.44836,127.80814 470.06481,152.59689 473.37828,135.21952 C 461.2047,106.88445 436.27841,143.24059 461.56952,152.57726 L 461.64844,153.14394 z "
         style="opacity:1;fill:#2e3436;fill-opacity:1;stroke:none;stroke-width:1;stroke-miterlimit:4;stroke-dasharray:none;stroke-opacity:1"
         id="path14085" />
      <path
         d="M 379.16705,121.74163 C 375.97888,95.543891 430.32082,101.13359 412.16851,125.99709 C 401.03841,135.96357 391.59185,110.42077 407.29541,118.14219 C 391.60928,125.18155 422.97541,125.49597 409.78223,111.35728 C 393.30491,100.21359 387.21811,114.30495 379.16705,121.74163 z "
         style="opacity:1;fill:#2e3436;fill-opacity:1;stroke:none;stroke-width:1;stroke-miterlimit:4;stroke-dasharray:none;stroke-opacity:1"
         id="path14087" />
      <path
         d="M 412.28815,112.45021 C 403.73562,88.245322 460.71577,90.585305 448.23125,115.052 C 439.92934,131.42473 413.01579,108.8309 433.50384,106.80867 C 436.7691,108.46138 423.01361,116.88337 436.85509,116.72331 C 466.63963,104.00199 410.49995,87.818898 413.71466,111.60237 L 412.60148,112.26398 L 412.28815,112.45021 z "
         style="opacity:1;fill:#2e3436;fill-opacity:1;stroke:none;stroke-width:1;stroke-miterlimit:4;stroke-dasharray:none;stroke-opacity:1"
         id="path14089" />
      <path
         d="M 469.75162,120.27452 C 499.91766,117.84917 460.20201,84.68066 455.76317,109.97902 C 461.98562,123.07627 466.38925,97.933798 466.3383,116.02049 C 432.35543,122.2609 471.68667,76.431969 483.43522,107.08597 C 492.52663,115.64648 470.72829,131.17735 469.75162,120.27452 z "
         style="opacity:1;fill:#2e3436;fill-opacity:1;stroke:none;stroke-width:1;stroke-miterlimit:4;stroke-dasharray:none;stroke-opacity:1"
         id="path14091" />
      <path
         d="M 475.55585,122.93604 C 495.15933,99.212322 523.08837,144.42524 491.3044,147.94388 C 469.57904,149.80846 492.78587,120.3814 489.69457,132.84309 C 469.65783,145.53662 509.87636,149.68024 502.06301,129.79552 C 494.03349,109.33548 482.13849,129.43363 475.55585,122.93604 z "
         style="opacity:1;fill:#2e3436;fill-opacity:1;stroke:none;stroke-width:1;stroke-miterlimit:4;stroke-dasharray:none;stroke-opacity:1"
         id="path14093" />
      <path
         d="M 495.85828,118.52758 C 522.34518,119.63977 487.34399,79.166746 486.54042,105.28123 C 507.65898,110.30639 469.20291,112.80147 484.45978,96.331504 C 503.72688,75.072969 522.85009,133.22748 495.85828,118.52758 z "
         style="opacity:1;fill:#2e3436;fill-opacity:1;stroke:none;stroke-width:1;stroke-miterlimit:4;stroke-dasharray:none;stroke-opacity:1"
         id="path14095" />
      <path
         d="M 462.68463,99.612122 C 439.38463,74.436905 502.71211,63.587283 484.02458,93.354099 C 472.88357,99.963355 466.89158,80.636149 474.13073,87.0063 C 486.07227,98.58652 485.22243,70.248527 469.62418,78.762532 C 455.72557,84.191333 465.70815,92.397306 462.68463,99.612122 z "
         style="opacity:1;fill:#2e3436;fill-opacity:1;stroke:none;stroke-width:1;stroke-miterlimit:4;stroke-dasharray:none;stroke-opacity:1"
         id="path14097" />
      <path
         d="M 454.13077,86.56424 C 453.21165,61.016221 415.20654,91.340224 442.78729,93.301566 C 456.3153,94.841545 435.61786,77.245856 452.91083,87.876132 C 452.0572,111.9064 409.51435,84.715323 437.58872,74.724468 C 445.83093,65.442461 466.06292,82.479336 454.13077,86.56424 z "
         style="opacity:1;fill:#2e3436;fill-opacity:1;stroke:none;stroke-width:1;stroke-miterlimit:4;stroke-dasharray:none;stroke-opacity:1"
         id="path14099" />
      <path
         d="M 420.89813,101.51219 C 403.0238,114.69206 372.56007,89.08146 402.7796,80.728662 C 422.09538,70.848998 421.01346,106.71025 406.39071,93.020236 C 430.18104,82.130118 379.40339,85.456835 398.09966,97.621387 C 404.37765,105.00339 419.0874,93.166598 420.89813,101.51219 z "
         style="opacity:1;fill:#2e3436;fill-opacity:1;stroke:none;stroke-width:1;stroke-miterlimit:4;stroke-dasharray:none;stroke-opacity:1"
         id="path14101" />
      <path
         d="M 505.27188,133.32269 C 530.02157,121.58239 538.35598,153.72712 516.8522,163.07915 C 494.10665,174.08187 502.76351,133.36594 509.89257,148.39298 C 491.13328,166.1936 536.82924,159.42038 524.23832,137.4965 C 519.05014,132.29968 503.21151,143.66389 505.27188,133.32269 z "
         style="opacity:1;fill:#2e3436;fill-opacity:1;stroke:none;stroke-width:1;stroke-miterlimit:4;stroke-dasharray:none;stroke-opacity:1"
         id="path14103" />
      <path
         d="M 542.85864,148.42587 C 515.14332,133.84544 529.93716,181.09484 549.54132,165.65516 C 559.51138,147.96347 527.38084,168.49456 543.35866,153.16757 C 568.40663,149.7715 546.34061,186.99885 531.60426,167.79301 C 505.06986,157.03685 540.13236,128.54526 544.44351,147.1362 L 543.43909,147.95354 L 542.85864,148.42587 z "
         style="opacity:1;fill:#2e3436;fill-opacity:1;stroke:none;stroke-width:1;stroke-miterlimit:4;stroke-dasharray:none;stroke-opacity:1"
         id="path14105" />
      <path
         d="M 471.95532,154.82085 C 483.78567,135.30901 518.45949,150.01554 502.05844,170.70376 C 486.84862,187.40071 469.66513,149.70558 491.90973,157.40775 C 493.31141,163.31813 476.819,157.1826 486.60141,169.28756 C 510.70905,178.77518 502.13578,135.69234 481.8201,151.12787 C 477.62127,151.74436 475.98301,159.89818 471.95532,154.82085 z "
         style="opacity:1;fill:#2e3436;fill-opacity:1;stroke:none;stroke-width:1;stroke-miterlimit:4;stroke-dasharray:none;stroke-opacity:1"
         id="path14107" />
      <path
         d="M 467.42453,175.18724 C 488.91953,155.0323 448.54654,134.98577 442.64781,160.07135 C 456.08939,171.54237 462.4037,161.42697 459.68221,155.2549 C 483.14149,173.74754 421.55123,171.157 442.98885,151.15272 C 462.71401,129.94299 489.44644,164.2952 468.53629,176.63623 L 467.74802,175.60885 L 467.42453,175.18724 z "
         style="opacity:1;fill:#2e3436;fill-opacity:1;stroke:none;stroke-width:1;stroke-miterlimit:4;stroke-dasharray:none;stroke-opacity:1"
         id="path14109" />
      <path
         d="M 420.80853,178.98323 C 391.3222,161.49896 445.92755,132.27367 442.63952,167.74872 C 436.40928,184.16397 417.88453,158.28365 432.39032,161.77812 C 427.62763,173.18458 448.3074,163.67453 433.41626,155.51365 C 412.2119,150.1026 417.78403,169.69113 420.80853,178.98323 z "
         style="opacity:1;fill:#2e3436;fill-opacity:1;stroke:none;stroke-width:1;stroke-miterlimit:4;stroke-dasharray:none;stroke-opacity:1"
         id="path14111" />
      <path
         d="M 404.15872,179.2245 C 416.63739,149.38198 349.80513,159.79855 382.1474,176.8659 C 397.93598,176.43107 378.42444,155.35927 394.13001,167.1244 C 395.00014,195.42596 352.4316,173.7645 374.58471,156.8904 C 389.33184,142.7397 426.703,175.92739 404.15872,179.2245 z "
         style="opacity:1;fill:#2e3436;fill-opacity:1;stroke:none;stroke-width:1;stroke-miterlimit:4;stroke-dasharray:none;stroke-opacity:1"
         id="path14113" />
      <path
         d="M 346.44058,181.57971 C 314.93159,170.71936 353.62942,133.22923 366.22936,159.75019 C 379.33789,178.91212 338.84867,187.25231 347.55941,167.44328 C 355.19946,164.43625 345.52418,181.87258 359.66436,173.88236 C 377.79579,150.97728 325.64655,148.60708 340.97401,172.96087 C 343.91142,177.39587 351.21521,175.35079 346.44058,181.57971 z "
         style="opacity:1;fill:#2e3436;fill-opacity:1;stroke:none;stroke-width:1;stroke-miterlimit:4;stroke-dasharray:none;stroke-opacity:1"
         id="path14115" />
      <path
         d="M 346.57611,166.07574 C 360.2303,150.75395 356.81608,172.48135 346.57611,166.07574 z "
         style="opacity:1;fill:#2e3436;fill-opacity:1;stroke:none;stroke-width:1;stroke-miterlimit:4;stroke-dasharray:none;stroke-opacity:1"
         id="path14117" />
      <path
         d="M 349.13348,154.35735 C 316.61935,149.94872 354.36962,104.61209 366.68642,132.95772 C 376.98019,157.8426 338.35049,142.61175 354.15539,141.20945 C 376.82488,148.75115 345.94062,109.93223 340.13845,140.67445 C 338.82207,151.01033 353.1064,145.80088 349.13348,154.35735 z "
         style="opacity:1;fill:#2e3436;fill-opacity:1;stroke:none;stroke-width:1;stroke-miterlimit:4;stroke-dasharray:none;stroke-opacity:1"
         id="path14119" />
      <path
         d="M 559.4101,166.80722 C 533.98332,170.88854 566.83459,198.13268 572.67439,177.88307 C 571.54222,168.36914 550.28515,181.72708 565.28132,169.81868 C 590.73631,170.32335 566.94514,200.40931 551.24775,186.07173 C 532.17666,178.10855 564.01206,149.25751 559.4101,166.80722 z "
         style="opacity:1;fill:#2e3436;fill-opacity:1;stroke:none;stroke-width:1;stroke-miterlimit:4;stroke-dasharray:none;stroke-opacity:1"
         id="path14121" />
      <path
         d="M 525.97107,190.58398 C 514.36236,161.55317 560.94214,170.93814 551.64631,194.32978 C 539.11497,217.35146 527.3556,180.3084 542.45134,188.03925 C 529.07154,203.91381 560.54771,192.56106 544.31596,179.85371 C 533.95449,166.49635 525.4168,182.96098 527.31274,190.05023 L 526.10951,190.52891 L 525.97107,190.58398 z "
         style="opacity:1;fill:#2e3436;fill-opacity:1;stroke:none;stroke-width:1;stroke-miterlimit:4;stroke-dasharray:none;stroke-opacity:1"
         id="path14123" />
      <path
         d="M 512.00977,190.00562 C 538.07338,192.34993 512.09153,152.94064 504.61882,180.19204 C 511.79956,183.58005 523.47114,183.42699 507.0598,187.03067 C 484.15949,170.28967 535.98141,154.99801 527.74733,185.26828 C 529.28022,191.48179 507.72166,199.21847 512.00977,190.00562 z "
         style="opacity:1;fill:#2e3436;fill-opacity:1;stroke:none;stroke-width:1;stroke-miterlimit:4;stroke-dasharray:none;stroke-opacity:1"
         id="path14125" />
      <path
         d="M 560.09595,213.78888 C 533.22415,199.99615 568.35137,171.09597 584.41411,191.06703 C 603.88359,212.05466 555.82832,227.27571 564.1187,200.2552 C 578.5729,189.72464 555.99648,216.71345 576.36011,211.84056 C 604.24538,193.98063 546.37353,174.83046 555.69428,204.7559 C 558.43983,209.40715 563.5416,207.6751 560.09595,213.78888 z "
         style="opacity:1;fill:#2e3436;fill-opacity:1;stroke:none;stroke-width:1;stroke-miterlimit:4;stroke-dasharray:none;stroke-opacity:1"
         id="path14127" />
      <path
         d="M 591.60175,223.21964 C 584.24391,199.17967 563.60769,230.18845 585.98701,233.07199 C 606.45823,233.66247 575.26721,223.25121 593.04502,223.58982 C 612.7023,247.82869 554.49622,234.89571 574.24026,212.73171 C 580.03275,200.25255 602.9977,219.67806 591.60175,223.21964 z "
         style="opacity:1;fill:#2e3436;fill-opacity:1;stroke:none;stroke-width:1;stroke-miterlimit:4;stroke-dasharray:none;stroke-opacity:1"
         id="path14129" />
      <path
         d="M 600.47278,255.9501 C 588.04781,283.60355 564.86064,234.37286 593.52787,241.87475 C 601.21315,255.56225 590.96428,255.39582 589.58951,244.05059 C 570.4627,247.09648 592.2132,272.85262 598.77137,255.09451 L 599.92827,255.67628 L 600.47278,255.9501 z "
         style="opacity:1;fill:#2e3436;fill-opacity:1;stroke:none;stroke-width:1;stroke-miterlimit:4;stroke-dasharray:none;stroke-opacity:1"
         id="path14131" />
      <path
         d="M 483.3519,198.46327 C 458.20347,209.55137 462.37268,160.47265 487.38715,173.29955 C 516.7488,180.40763 474.20946,206.81642 481.16416,183.20599 C 486.94277,179.92817 480.59477,193.67953 491.46169,186.65918 C 492.78894,160.99885 450.61735,189.62554 479.19174,195.91734 C 480.84243,193.10952 482.02074,197.78629 483.3519,198.46327 z "
         style="opacity:1;fill:#2e3436;fill-opacity:1;stroke:none;stroke-width:1;stroke-miterlimit:4;stroke-dasharray:none;stroke-opacity:1"
         id="path14133" />
      <path
         d="M 457.82144,192.79851 C 463.4675,163.89741 414.88276,195.6809 445.11236,202.36353 C 463.86419,205.35196 440.73918,181.05611 457.74164,195.41729 C 454.68753,222.74628 412.10318,190.75533 440.85032,180.18787 C 453.59019,164.09731 472.52148,195.06314 457.82144,192.79851 z "
         style="opacity:1;fill:#2e3436;fill-opacity:1;stroke:none;stroke-width:1;stroke-miterlimit:4;stroke-dasharray:none;stroke-opacity:1"
         id="path14135" />
      <path
         d="M 425.39426,202.35379 C 396.34157,213.84326 393.49394,170.98656 423.94443,174.08453 C 445.90572,183.73122 416.88341,204.71046 417.69318,185.71341 C 421.81773,192.33731 433.66535,184.16867 421.18769,178.7501 C 393.31357,183.90665 405.1289,200.56653 425.39426,202.35379 z "
         style="opacity:1;fill:#2e3436;fill-opacity:1;stroke:none;stroke-width:1;stroke-miterlimit:4;stroke-dasharray:none;stroke-opacity:1"
         id="path14137" />
      <path
         d="M 377.12924,193.96378 C 392.10363,209.78654 404.04421,181.26352 382.24658,182.74679 C 374.76303,185.15267 373.29357,196.83629 372.04994,183.66316 C 388.26496,163.67559 415.08947,202.71749 385.99795,203.05843 C 382.30393,201.41959 370.69143,199.24226 377.12924,193.96378 z "
         style="opacity:1;fill:#2e3436;fill-opacity:1;stroke:none;stroke-width:1;stroke-miterlimit:4;stroke-dasharray:none;stroke-opacity:1"
         id="path14139" />
      <path
         d="M 354.61624,197.84547 C 322.45507,192.9114 360.91509,154.64893 369.05344,180.45084 C 375.0757,198.00105 347.05118,189.67464 359.04279,187.68679 C 378.05334,183.12372 348.86857,164.80542 345.05419,183.61106 C 342.6281,192.72286 358.05017,191.0929 354.61624,197.84547 z "
         style="opacity:1;fill:#2e3436;fill-opacity:1;stroke:none;stroke-width:1;stroke-miterlimit:4;stroke-dasharray:none;stroke-opacity:1"
         id="path14141" />
      <path
         d="M 373.30957,185.4232 C 398.75161,194.65289 361.2491,192.89747 373.30957,185.4232 z "
         style="opacity:1;fill:#2e3436;fill-opacity:1;stroke:none;stroke-width:1;stroke-miterlimit:4;stroke-dasharray:none;stroke-opacity:1"
         id="path14143" />
      <path
         d="M 329.02463,200.92513 C 305.26445,209.80325 295.5457,178.4088 319.8403,171.66615 C 345.93894,162.16975 338.90691,206.71972 325.30173,183.95862 C 329.93638,184.35743 342.21637,185.47978 328.04798,175.98294 C 302.48005,174.55468 310.58706,202.67182 328.73432,198.41937 L 328.88335,199.70571 L 329.02463,200.92513 z "
         style="opacity:1;fill:#2e3436;fill-opacity:1;stroke:none;stroke-width:1;stroke-miterlimit:4;stroke-dasharray:none;stroke-opacity:1"
         id="path14145" />
      <path
         d="M 324.22757,165.94652 C 345.80571,170.11697 331.8883,128.92655 319.21045,153.27043 C 313.81436,163.24641 328.87515,164.3695 326.40323,155.69691 C 339.90881,174.16098 297.95034,162.13891 319.28488,146.98813 C 337.31006,126.6809 349.52882,173.25207 325.6488,170.61223 C 320.43327,172.35969 324.21957,167.81678 324.22757,165.94652 z "
         style="opacity:1;fill:#2e3436;fill-opacity:1;stroke:none;stroke-width:1;stroke-miterlimit:4;stroke-dasharray:none;stroke-opacity:1"
         id="path14147" />
      <path
         d="M 305.34631,187.56183 C 275.1277,187.14757 301.95115,139.47717 321.79333,158.00138 C 337.08019,176.17301 296.71868,181.54364 306.98913,168.5775 C 319.57016,182.19256 324.56892,149.39066 306.21455,159.74323 C 288.71879,167.68498 296.61021,179.76036 305.34631,187.56183 z "
         style="opacity:1;fill:#2e3436;fill-opacity:1;stroke:none;stroke-width:1;stroke-miterlimit:4;stroke-dasharray:none;stroke-opacity:1"
         id="path14149" />
      <path
         d="M 302.97025,212.31641 C 326.90817,198.20232 279.83594,180.77609 289.93627,206.2587 C 302.82224,224.02026 299.66473,184.35311 306.12597,204.57009 C 295.3645,236.66535 268.27625,180.89854 300.91652,188.89482 C 317.88722,188.63455 314.9796,220.6341 302.97025,212.31641 z "
         style="opacity:1;fill:#2e3436;fill-opacity:1;stroke:none;stroke-width:1;stroke-miterlimit:4;stroke-dasharray:none;stroke-opacity:1"
         id="path14151" />
      <path
         d="M 289.31573,203.84621 C 257.34012,218.76476 280.86709,161.98192 297.0641,186.63246 C 290.23439,195.90743 287.95718,187.3 291.43502,184.73205 C 277.61377,184.0944 266.37368,202.86966 289.31573,203.84621 z "
         style="opacity:1;fill:#2e3436;fill-opacity:1;stroke:none;stroke-width:1;stroke-miterlimit:4;stroke-dasharray:none;stroke-opacity:1"
         id="path14153" />
      <path
         d="M 287.18777,216.46434 C 267.55359,199.22193 274.16137,248.9068 288.41538,222.74513 C 271.13609,222.35668 298.6116,211.19015 291.93383,226.70808 C 269.37038,256.99957 260.34531,192.14564 289.71893,211.93296 C 294.80591,214.79653 288.6736,215.11485 287.18777,216.46434 z "
         style="opacity:1;fill:#2e3436;fill-opacity:1;stroke:none;stroke-width:1;stroke-miterlimit:4;stroke-dasharray:none;stroke-opacity:1"
         id="path14155" />
      <path
         d="M 288.65558,259.83435 C 269.24824,279.67115 256.61195,229.79795 281.77608,243.89253 C 283.31065,250.29922 264.98967,238.99056 271.73206,256.32956 C 275.96773,265.90296 284.77487,254.67819 288.65558,259.83435 z "
         style="opacity:1;fill:#2e3436;fill-opacity:1;stroke:none;stroke-width:1;stroke-miterlimit:4;stroke-dasharray:none;stroke-opacity:1"
         id="path14157" />
      <path
         d="M 352.99329,438.92319 C 367.14942,445.89245 382.72559,482.27934 373.42025,485.89825 C 374.24383,467.82449 354.28865,450.35513 352.08828,439.83383 L 352.99329,438.92319 z "
         style="opacity:1;fill:#2e3436;fill-opacity:1;stroke:none;stroke-width:1;stroke-miterlimit:4;stroke-dasharray:none;stroke-opacity:1"
         id="path14161" />
      <path
         d="M 512.20612,454.09354 C 497.19046,458.37687 498.26457,480.22403 493.38067,486.34259 C 485.13674,477.28865 504.47187,442.51587 512.20612,454.09354 z "
         style="opacity:1;fill:#2e3436;fill-opacity:1;stroke:none;stroke-width:1;stroke-miterlimit:4;stroke-dasharray:none;stroke-opacity:1"
         id="path14163" />
      <path
         d="M 373.38754,473.6925 C 357.01139,491.04679 328.14658,478.64696 306.85394,486.78446 C 273.72706,491.99413 254.51773,523.17363 238.44518,549.49347 C 232.03418,560.53723 230.80094,569.75934 235.49065,551.87589 C 247.25727,524.96953 265.69086,497.49223 293.85668,486.2804 C 317.32061,480.98883 341.56036,479.62831 365.18147,476.61007 C 369.3764,474.54467 368.42396,470.09607 373.38754,473.6925 z "
         style="opacity:1;fill:#2e3436;fill-opacity:1;stroke:none;stroke-width:1;stroke-miterlimit:4;stroke-dasharray:none;stroke-opacity:1"
         id="path14165" />
      <path
         d="M 502.08499,467.85577 C 519.68659,484.34622 549.66445,475.70099 569.53433,491.26936 C 592.23398,502.604 615.52144,522.67952 616.69647,549.38666 C 605.61623,523.96471 585.75222,502.47943 559.59214,492.20306 C 541.63878,477.84416 512.52262,488.45854 498.31997,469.73969 C 499.57498,469.11172 500.82998,468.48375 502.08499,467.85577 z "
         style="opacity:1;fill:#2e3436;fill-opacity:1;stroke:none;stroke-width:1;stroke-miterlimit:4;stroke-dasharray:none;stroke-opacity:1"
         id="path14167" />
      <path
         d="M 330.29102,482.02774 C 355.15609,485.23868 355.29362,512.28912 365.61472,528.35655 C 384.51378,540.53478 408.93864,529.50538 429.79422,540.18351 C 450.52977,545.45248 467.18846,531.33388 482.62095,519.90014 C 499.67853,508.46089 527.63372,514.98134 539.14386,494.47586 C 530.69935,523.16243 494.97096,512.51446 477.28722,529.88081 C 462.21807,544.5413 441.13524,549.28516 420.91971,544.47186 C 400.6173,531.91594 372.13782,550.8388 357.76362,527.01687 C 355.49029,508.57556 343.21282,489.66674 329.67209,483.23469 L 330.26298,482.08242 L 330.29102,482.02774 z "
         style="opacity:1;fill:#2e3436;fill-opacity:1;stroke:none;stroke-width:1;stroke-miterlimit:4;stroke-dasharray:none;stroke-opacity:1"
         id="path14169" />
      <path
         d="M 506.1669,498.85568 C 478.85537,489.42773 465.25028,526.23537 438.68293,521.54474 C 418.76621,529.53122 399.60627,514.38366 381.65878,520.89279 C 367.03958,524.60556 357.9847,486.72498 372.16062,505.95767 C 377.57047,522.83909 401.89625,508.09557 415.21058,518.22123 C 444.23507,522.20274 465.5935,505.63859 490.22879,494.47761 C 493.3159,494.04151 511.68349,491.40061 506.1669,498.85568 z "
         style="opacity:1;fill:#2e3436;fill-opacity:1;stroke:none;stroke-width:1;stroke-miterlimit:4;stroke-dasharray:none;stroke-opacity:1"
         id="path14219" />
    </g>
  </g>
</svg>
